<svg width="74" height="80" viewBox="0 0 74 80" fill="none" xmlns="http://www.w3.org/2000/svg">
<path d="M34.9003 7.7419C37.2747 7.74337 39.5917 8.4727 41.5389 9.83159C43.4861 11.1905 44.97 13.1136 45.7905 15.3418C46.0513 16.1223 46.5473 16.803 47.2103 17.2904C47.8733 17.7779 48.6709 18.0482 49.4937 18.0644C50.1133 18.0642 50.7238 17.9153 51.2739 17.6301C51.824 17.3449 52.2976 16.9319 52.6549 16.4257C53.0101 15.9194 53.2388 15.3353 53.3219 14.7225C53.405 14.1096 53.34 13.4857 53.1323 12.9031C51.8089 9.12581 49.3426 5.85408 46.0755 3.54194C42.8084 1.2298 38.9027 -0.00808938 34.9003 3.97826e-05H33.9712C29.167 0.25456 24.6268 2.27753 21.225 5.67939C17.8231 9.08125 15.8001 13.6214 15.5456 18.4257C15.4198 21.0444 15.8273 23.6615 16.7434 26.118C17.6596 28.5745 19.0653 30.8193 20.8752 32.7161C22.6852 34.6129 24.8616 36.1222 27.2725 37.1524C29.6834 38.1827 32.2785 38.7124 34.9003 38.7093H35.1325C36.1274 38.6756 37.0684 38.2496 37.7502 37.5243C38.432 36.799 38.799 35.8334 38.7712 34.8384C38.7681 33.7582 38.3366 32.7233 37.5712 31.961C37.2339 31.6207 36.8317 31.3516 36.3884 31.1699C35.945 30.9881 35.4697 30.8973 34.9906 30.903C34.0127 30.9113 33.0376 30.7986 32.0874 30.5675C29.3843 29.8407 27.0346 28.1621 25.4708 25.8405C23.9071 23.5189 23.2345 20.7107 23.5769 17.9326C23.9192 15.1545 25.2535 12.5935 27.3341 10.7211C29.4147 8.8486 32.1016 7.79064 34.9003 7.7419Z" fill="#00CC87"/>
<path d="M0.0620193 68.3864V70.9671C0.0620193 73.3625 1.01362 75.6599 2.70748 77.3538C4.40134 79.0476 6.69871 79.9992 9.09419 79.9992H60.7066C63.1021 79.9992 65.3994 79.0476 67.0933 77.3538C68.7871 75.6599 69.7388 73.3625 69.7388 70.9671V68.3864C69.7388 56.0898 54.4357 46.4512 34.9004 46.4512C15.3651 46.4512 0.0620193 56.0898 0.0620193 68.3864ZM7.80388 68.3864C7.80388 61.6768 18.9263 54.193 34.9004 54.193C50.8744 54.193 61.9969 61.6768 61.9969 68.3864V70.9671C61.9969 71.3093 61.861 71.6375 61.619 71.8794C61.377 72.1214 61.0488 72.2574 60.7066 72.2574H9.09419C8.75198 72.2574 8.42378 72.1214 8.1818 71.8794C7.93982 71.6375 7.80388 71.3093 7.80388 70.9671V68.3864Z" fill="#00CC87"/>
<path d="M73.6097 14.1935C73.6097 13.1669 73.2018 12.1823 72.4759 11.4563C71.75 10.7304 70.7654 10.3226 69.7387 10.3226C68.7121 10.3226 67.7275 10.7304 67.0016 11.4563C66.2756 12.1823 65.8678 13.1669 65.8678 14.1935V24.516C65.8678 26.227 65.1881 27.868 63.9782 29.0779C62.7683 30.2878 61.1273 30.9675 59.4162 30.9675H54.255C53.2284 30.9675 52.2438 31.3754 51.5179 32.1013C50.7919 32.8272 50.3841 33.8118 50.3841 34.8385C50.3841 35.8651 50.7919 36.8497 51.5179 37.5756C52.2438 38.3016 53.2284 38.7094 54.255 38.7094H59.4162C61.2802 38.7094 63.1258 38.3423 64.8478 37.629C66.5699 36.9157 68.1345 35.8702 69.4525 34.5522C70.7705 33.2343 71.816 31.6696 72.5292 29.9476C73.2425 28.2255 73.6097 26.3799 73.6097 24.516V14.1935Z" fill="#00CC87"/>
</svg>
