<svg width="81" height="80" viewBox="0 0 81 80" fill="none" xmlns="http://www.w3.org/2000/svg">
<path d="M76.3503 72.2582H60.8666C59.84 72.2582 58.8554 72.666 58.1295 73.3919C57.4035 74.1179 56.9957 75.1025 56.9957 76.1291C56.9957 77.1557 57.4035 78.1403 58.1295 78.8663C58.8554 79.5922 59.84 80 60.8666 80H76.3503C77.377 80 78.3616 79.5922 79.0875 78.8663C79.8135 78.1403 80.2213 77.1557 80.2213 76.1291C80.2213 75.1025 79.8135 74.1179 79.0875 73.3919C78.3616 72.666 77.377 72.2582 76.3503 72.2582Z" fill="#00CC87"/>
<path d="M64.9182 51.4326C64.2022 51.435 63.501 51.636 62.8924 52.0132L56.1312 56.1938C55.6931 56.4586 55.3118 56.8077 55.0095 57.2209C54.7072 57.634 54.4899 58.103 54.3701 58.6007C54.2503 59.0985 54.2304 59.615 54.3116 60.1205C54.3927 60.6259 54.5734 61.1103 54.843 61.5454C55.1126 61.9806 55.4659 62.358 55.8824 62.6557C56.2989 62.9534 56.7703 63.1656 57.2693 63.2799C57.7683 63.3942 58.285 63.4083 58.7896 63.3216C59.2941 63.2348 59.7764 63.0488 60.2086 62.7744L66.9698 58.5938C67.6853 58.1504 68.2367 57.4858 68.5406 56.7008C68.8444 55.9158 68.8841 55.0532 68.6537 54.2436C68.4232 53.434 67.9351 52.7216 67.2634 52.2144C66.5916 51.7071 65.7729 51.4327 64.9311 51.4326H64.9182Z" fill="#00CC87"/>
<path d="M24.325 56.1938L17.5638 52.0132C17.1316 51.7388 16.6493 51.5528 16.1448 51.466C15.6402 51.3793 15.1235 51.3934 14.6245 51.5077C14.1255 51.622 13.6541 51.8342 13.2376 52.1319C12.8211 52.4296 12.4678 52.807 12.1982 53.2422C11.9286 53.6773 11.7479 54.1617 11.6667 54.6671C11.5856 55.1726 11.6055 55.6891 11.7253 56.1869C11.8451 56.6846 12.0624 57.1536 12.3647 57.5667C12.667 57.9799 13.0483 58.329 13.4864 58.5938L20.2476 62.7744C20.6798 63.0488 21.1621 63.2348 21.6666 63.3216C22.1712 63.4083 22.6879 63.3942 23.1869 63.2799C23.6859 63.1656 24.1573 62.9534 24.5738 62.6557C24.9902 62.358 25.3435 61.9806 25.6132 61.5455C25.8828 61.1103 26.0634 60.626 26.1446 60.1205C26.2258 59.615 26.2059 59.0985 26.0861 58.6008C25.9663 58.103 25.749 57.634 25.4467 57.2209C25.1444 56.8077 24.7631 56.4586 24.325 56.1938Z" fill="#00CC87"/>
<path d="M0.222046 76.1291C0.222046 77.1557 0.629874 78.1403 1.35581 78.8663C2.08175 79.5922 3.06634 80 4.09298 80H19.5767C20.6033 80 21.5879 79.5922 22.3139 78.8663C23.0398 78.1403 23.4476 77.1557 23.4476 76.1291C23.4476 75.1025 23.0398 74.1179 22.3139 73.3919C21.5879 72.666 20.6033 72.2582 19.5767 72.2582H4.09298C3.06634 72.2582 2.08175 72.666 1.35581 73.3919C0.629874 74.1179 0.222046 75.1025 0.222046 76.1291Z" fill="#00CC87"/>
<path d="M12.609 0.0782086C12.0465 -0.036606 11.4655 -0.0248761 10.9082 0.112548C10.3508 0.249972 9.83094 0.509649 9.3863 0.87277C8.94166 1.23589 8.58336 1.69336 8.33734 2.21205C8.09132 2.73074 7.96375 3.29765 7.96387 3.87172V10.3233C7.96387 12.7188 8.91547 15.0161 10.6093 16.71C12.3032 18.4038 14.6006 19.3554 16.996 19.3554H21.0863L25.1121 33.4456C25.6493 35.3292 26.7843 36.9872 28.346 38.1695C29.9077 39.3518 31.8113 39.9944 33.7701 40.0004H36.3507V54.039C36.3341 54.9528 36.633 55.8445 37.1971 56.5637C37.7612 57.2829 38.5559 57.7857 39.4474 57.9873C40.0099 58.1021 40.5909 58.0904 41.1483 57.953C41.7056 57.8156 42.2255 57.5559 42.6701 57.1928C43.1147 56.8296 43.4731 56.3722 43.7191 55.8535C43.9651 55.3348 44.0927 54.7679 44.0925 54.1938V40.0004H46.6732C48.6363 40 50.5459 39.3599 52.1127 38.1772C53.6796 36.9945 54.8185 35.3335 55.3569 33.4456L59.3569 19.3554H63.4472C65.8427 19.3554 68.14 18.4038 69.8339 16.71C71.5278 15.0161 72.4794 12.7188 72.4794 10.3233V3.87172C72.4795 3.29765 72.3519 2.73074 72.1059 2.21205C71.8599 1.69336 71.5016 1.23589 71.0569 0.87277C70.6123 0.509649 70.0925 0.249972 69.5351 0.112548C68.9777 -0.0248761 68.3967 -0.036606 67.8342 0.0782086C66.9427 0.279855 66.148 0.782635 65.5839 1.50183C65.0198 2.22103 64.7209 3.11269 64.7375 4.02656V10.3233C64.7375 10.6655 64.6016 10.9937 64.3596 11.2357C64.1176 11.4776 63.7894 11.6136 63.4472 11.6136H16.996C16.6538 11.6136 16.3256 11.4776 16.0836 11.2357C15.8417 10.9937 15.7057 10.6655 15.7057 10.3233V4.02656C15.7223 3.11269 15.4234 2.22103 14.8593 1.50183C14.2952 0.782635 13.5005 0.279855 12.609 0.0782086ZM51.3054 19.3554L47.8861 31.3166C47.8115 31.5828 47.6534 31.8181 47.435 31.9877C47.2166 32.1572 46.9496 32.2522 46.6732 32.2585H33.7701C33.4805 32.2692 33.1957 32.1821 32.9616 32.0113C32.7275 31.8404 32.5578 31.5957 32.4798 31.3166L29.1379 19.3554H51.3054Z" fill="#00CC87"/>
<path d="M40.2217 80C42.3596 80 44.0927 78.267 44.0927 76.1291C44.0927 73.9913 42.3596 72.2582 40.2217 72.2582C38.0839 72.2582 36.3508 73.9913 36.3508 76.1291C36.3508 78.267 38.0839 80 40.2217 80Z" fill="#00CC87"/>
</svg>
