<svg width="76" height="80" viewBox="0 0 76 80" fill="none" xmlns="http://www.w3.org/2000/svg">
<path d="M75.4497 17.4063C75.451 14.7455 74.6297 12.1493 73.0982 9.97341C71.5668 7.7975 69.4001 6.14825 66.8949 5.25156C57.6307 1.91485 47.8765 0.140175 38.0307 0C28.1831 0.145828 18.4285 1.92931 9.16645 5.27737C6.66336 6.17332 4.49813 7.8206 2.96686 9.99394C1.43559 12.1673 0.613036 14.7606 0.611694 17.4192V47.1737C0.611694 54.8124 4.92133 59.7671 6.98583 62.1542L7.3084 62.5284C9.7858 65.4445 12.6245 68.0767 19.0889 72.1799C21.6696 73.7928 24.9211 75.6638 28.8953 77.7412C31.7221 79.1915 34.8536 79.9479 38.0307 79.9479C41.2078 79.9479 44.3393 79.1915 47.1661 77.7412C51.1531 75.6509 54.4563 73.7799 56.9724 72.1799C63.424 68.1026 66.2369 65.4574 68.7401 62.5284L69.1143 62.0897C71.1787 59.7284 75.4497 54.7607 75.4497 47.1608V17.4063ZM67.7078 47.1608C67.7078 51.8834 65.024 55.0059 63.2433 57.0704L62.8562 57.522C60.8176 59.9091 58.4305 62.1026 52.8176 65.6639C50.4822 67.0961 47.3725 68.9025 43.579 70.8896C41.8628 71.7725 39.9607 72.2331 38.0307 72.2331C36.1007 72.2331 34.1986 71.7725 32.4824 70.8896C28.6888 68.9025 25.5792 67.1477 23.2437 65.651C17.6051 62.0639 15.218 59.8575 13.1922 57.4833L12.8438 57.0833C11.0632 55.0188 8.35355 51.9221 8.35355 47.1737V17.4192C8.3523 16.3547 8.68021 15.3159 9.29233 14.4451C9.90446 13.5742 10.7709 12.914 11.7729 12.5547C20.1981 9.50587 29.0718 7.8794 38.0307 7.74186C46.9893 7.8825 55.8624 9.50888 64.2885 12.5547C65.2884 12.9132 66.1534 13.5715 66.7653 14.4398C67.3773 15.3081 67.7064 16.344 67.7078 17.4063V47.1608Z" fill="#00CC87"/>
<path d="M48.1981 26.9417L34.1596 40.9803L27.8629 34.6836C27.5085 34.3033 27.0811 33.9982 26.6063 33.7867C26.1315 33.5751 25.6189 33.4613 25.0991 33.4522C24.5794 33.443 24.0631 33.5386 23.5811 33.7333C23.0991 33.928 22.6613 34.2178 22.2937 34.5853C21.9261 34.9529 21.6363 35.3908 21.4416 35.8728C21.247 36.3548 21.1513 36.871 21.1605 37.3908C21.1697 37.9105 21.2834 38.4231 21.495 38.8979C21.7066 39.3728 22.0116 39.8001 22.3919 40.1545L29.2693 47.0319C30.5685 48.3296 32.3297 49.0585 34.166 49.0585C36.0023 49.0585 37.7635 48.3296 39.0628 47.0319L53.6691 32.4126C54.394 31.6868 54.8011 30.703 54.8011 29.6772C54.8011 28.6514 54.394 27.6675 53.6691 26.9417C52.9321 26.2382 51.9525 25.8456 50.9336 25.8456C49.9147 25.8456 48.9351 26.2382 48.1981 26.9417Z" fill="#00CC87"/>
</svg>
