<svg width="185" height="198" viewBox="0 0 185 198" fill="none" xmlns="http://www.w3.org/2000/svg">
<path d="M92.5358 2.50026L92.4993 2.49973L92.4628 2.50028C69.1578 2.84733 46.0729 7.0916 24.1539 15.059C11.2833 19.6936 2.50688 32.2602 2.5 45.9605V45.9618V115.931C2.5 134.759 12.8914 149.821 26.3285 161.804C39.7588 173.781 56.5458 182.965 69.9747 190.024L69.9832 190.028L69.9917 190.033C76.9558 193.626 84.6713 195.5 92.5 195.5C100.329 195.5 108.044 193.626 115.008 190.033L115.018 190.027L115.028 190.022C128.453 182.945 145.24 173.758 158.67 161.782C172.108 149.799 182.5 134.738 182.5 115.9V45.9327C182.5 45.9322 182.5 45.9318 182.5 45.9314C182.506 32.2192 173.727 19.6355 160.844 14.9976C138.92 7.05719 115.837 2.83385 92.5358 2.50026Z" fill="black" fill-opacity="0.4" stroke="white" stroke-width="5"/>
<path d="M123.056 54.4102C120.979 54.4102 119.941 54.4102 119.345 53.5422C118.749 52.6742 119.061 51.8626 119.686 50.2394C120.205 48.8931 120.935 47.614 121.876 46.4022C123.743 43.957 126.443 42.0008 129.975 40.5337C133.507 39.0666 137.831 38.333 142.946 38.333C147.29 38.333 151.065 38.8832 154.273 39.9835C157.48 41.0431 159.956 42.551 161.702 44.5072C163.488 46.4226 164.381 48.6844 164.381 51.2926C164.381 53.3303 163.752 55.2049 162.494 56.9166C161.276 58.6282 159.307 59.9935 156.587 61.0123C154.042 61.9412 150.729 62.4106 146.646 62.4206C146.284 62.4215 145.991 62.126 145.991 61.7633C145.991 61.4111 146.267 61.1202 146.619 61.1066C150.41 60.9596 153.671 61.2338 156.404 61.9293C159.286 62.6221 161.499 63.8039 163.042 65.4748C164.625 67.105 165.417 69.2241 165.417 71.8324C165.417 74.6036 164.503 77.0896 162.676 79.2902C160.849 81.4502 158.19 83.1618 154.699 84.4252C151.207 85.6478 146.965 86.2591 141.972 86.2591C137.1 86.2591 132.857 85.607 129.244 84.3029C125.631 82.958 122.809 81.063 120.78 78.6178C119.656 77.2141 118.831 75.6806 118.303 74.0171C117.786 72.389 117.528 71.575 118.127 70.7562C118.727 69.9373 119.739 69.9373 121.763 69.9373H128.276C129.31 69.9373 129.827 69.9373 130.203 70.0974C130.579 70.2574 131.439 71.1528 133.158 72.9436C133.547 73.3485 134.009 73.7117 134.542 74.033C136.166 74.9704 138.643 75.439 141.972 75.439C144.854 75.439 147.067 75.0315 148.609 74.2164C150.193 73.4014 150.984 72.2399 150.984 70.732C150.984 69.8354 150.741 69.1019 150.253 68.5313C149.766 67.92 148.873 67.4717 147.574 67.1865C146.315 66.9012 144.549 66.7585 142.276 66.7585H138.542C136.657 66.7585 135.714 66.7585 135.128 66.1728C134.542 65.587 134.542 64.6442 134.542 62.7585V61.4056C134.542 59.52 134.542 58.5772 135.128 57.9914C135.714 57.4056 136.657 57.4056 138.542 57.4056H142.276C145.28 57.4056 147.351 57.0388 148.487 56.3053C149.624 55.5717 150.193 54.5936 150.193 53.371C150.193 51.9854 149.502 50.9462 148.122 50.2534C146.782 49.5198 144.793 49.1531 142.154 49.1531C139.272 49.1531 137.08 49.6217 135.577 50.559C135.135 50.8234 134.745 51.1214 134.408 51.453C132.606 53.2256 131.706 54.1119 131.342 54.2611C130.977 54.4102 130.492 54.4102 129.521 54.4102H123.056Z" fill="white"/>
<path d="M123.056 54.4102C120.979 54.4102 119.941 54.4102 119.345 53.5422C118.749 52.6742 119.061 51.8626 119.686 50.2394C120.205 48.8931 120.935 47.614 121.876 46.4022C123.743 43.957 126.443 42.0008 129.975 40.5337C133.507 39.0666 137.831 38.333 142.946 38.333C147.29 38.333 151.065 38.8832 154.273 39.9835C157.48 41.0431 159.956 42.551 161.702 44.5072C163.488 46.4226 164.381 48.6844 164.381 51.2926C164.381 53.3303 163.752 55.2049 162.494 56.9166C161.276 58.6282 159.307 59.9935 156.587 61.0123C154.042 61.9412 150.729 62.4106 146.646 62.4206C146.284 62.4215 145.991 62.126 145.991 61.7633C145.991 61.4111 146.267 61.1202 146.619 61.1066C150.41 60.9596 153.671 61.2338 156.404 61.9293C159.286 62.6221 161.499 63.8039 163.042 65.4748C164.625 67.105 165.417 69.2241 165.417 71.8324C165.417 74.6036 164.503 77.0896 162.676 79.2902C160.849 81.4502 158.19 83.1618 154.699 84.4252C151.207 85.6478 146.965 86.2591 141.972 86.2591C137.1 86.2591 132.857 85.607 129.244 84.3029C125.631 82.958 122.809 81.063 120.78 78.6178C119.656 77.2141 118.831 75.6806 118.303 74.0171C117.786 72.389 117.528 71.575 118.127 70.7562C118.727 69.9373 119.739 69.9373 121.763 69.9373H128.276C129.31 69.9373 129.827 69.9373 130.203 70.0974C130.579 70.2574 131.439 71.1528 133.158 72.9436C133.547 73.3485 134.009 73.7117 134.542 74.033C136.166 74.9704 138.643 75.439 141.972 75.439C144.854 75.439 147.067 75.0315 148.609 74.2164C150.193 73.4014 150.984 72.2399 150.984 70.732C150.984 69.8354 150.741 69.1019 150.253 68.5313C149.766 67.92 148.873 67.4717 147.574 67.1865C146.315 66.9012 144.549 66.7585 142.276 66.7585H138.542C136.657 66.7585 135.714 66.7585 135.128 66.1728C134.542 65.587 134.542 64.6442 134.542 62.7585V61.4056C134.542 59.52 134.542 58.5772 135.128 57.9914C135.714 57.4056 136.657 57.4056 138.542 57.4056H142.276C145.28 57.4056 147.351 57.0388 148.487 56.3053C149.624 55.5717 150.193 54.5936 150.193 53.371C150.193 51.9854 149.502 50.9462 148.122 50.2534C146.782 49.5198 144.793 49.1531 142.154 49.1531C139.272 49.1531 137.08 49.6217 135.577 50.559C135.135 50.8234 134.745 51.1214 134.408 51.453C132.606 53.2256 131.706 54.1119 131.342 54.2611C130.977 54.4102 130.492 54.4102 129.521 54.4102H123.056Z" fill="white"/>
<path d="M74.2142 43.4941C72.1371 43.4941 71.0986 43.4941 70.5027 42.6261C69.9068 41.7581 70.2193 40.9465 70.8442 39.3233C71.3626 37.9769 72.0924 36.6979 73.0336 35.4861C74.9011 33.0408 77.6008 31.0847 81.1328 29.6176C84.6648 28.1504 88.9884 27.4169 94.1037 27.4169C98.4477 27.4169 102.223 27.967 105.43 29.0674C108.638 30.127 111.114 31.6349 112.86 33.591C114.646 35.5064 115.539 37.7682 115.539 40.3765C115.539 42.4141 114.91 44.2888 113.651 46.0004C112.434 47.7121 110.465 49.0773 107.745 50.0962C105.2 51.025 101.886 51.4945 97.8041 51.5044C97.4414 51.5053 97.1486 51.2099 97.1486 50.8472C97.1486 50.4949 97.4251 50.2041 97.7771 50.1904C101.568 50.0435 104.829 50.3177 107.562 51.0131C110.444 51.7059 112.657 52.8878 114.2 54.5587C115.783 56.1888 116.574 58.308 116.574 60.9162C116.574 63.6875 115.661 66.1734 113.834 68.3741C112.007 70.534 109.348 72.2457 105.857 73.509C102.365 74.7316 98.1229 75.3429 93.1294 75.3429C88.2577 75.3429 84.0152 74.6909 80.4021 73.3868C76.7889 72.0419 73.9674 70.1469 71.9375 67.7017C70.8143 66.298 69.9887 64.7644 69.4609 63.1009C68.9443 61.4729 68.686 60.6589 69.2853 59.84C69.8846 59.0212 70.8968 59.0212 72.9212 59.0212H79.4343C80.4683 59.0212 80.9852 59.0212 81.3609 59.1812C81.7365 59.3413 82.5964 60.2367 84.3163 62.0274C84.7052 62.4324 85.1665 62.7955 85.7 63.1169C87.3239 64.0542 89.8004 64.5229 93.1294 64.5229C96.0118 64.5229 98.2244 64.1154 99.7671 63.3003C101.35 62.4852 102.142 61.3238 102.142 59.8159C102.142 58.9193 101.898 58.1857 101.411 57.6152C100.924 57.0039 100.031 56.5556 98.7319 56.2703C97.4733 55.985 95.7073 55.8424 93.4339 55.8424H89.7C87.8144 55.8424 86.8716 55.8424 86.2858 55.2566C85.7 54.6708 85.7 53.728 85.7 51.8424V50.4895C85.7 48.6039 85.7 47.6611 86.2858 47.0753C86.8716 46.4895 87.8144 46.4895 89.7 46.4895H93.4339C96.4381 46.4895 98.5086 46.1227 99.6453 45.3891C100.782 44.6556 101.35 43.6775 101.35 42.4549C101.35 41.0693 100.66 40.0301 99.2799 39.3373C97.9402 38.6037 95.9509 38.2369 93.3121 38.2369C90.4297 38.2369 88.2374 38.7056 86.7353 39.6429C86.2924 39.9072 85.9025 40.2052 85.5655 40.5369C83.7643 42.3094 82.8637 43.1957 82.4994 43.3449C82.1351 43.4941 81.6496 43.4941 80.6787 43.4941H74.2142Z" fill="white"/>
<path d="M74.2142 43.4941C72.1371 43.4941 71.0986 43.4941 70.5027 42.6261C69.9068 41.7581 70.2193 40.9465 70.8442 39.3233C71.3626 37.9769 72.0924 36.6979 73.0336 35.4861C74.9011 33.0408 77.6008 31.0847 81.1328 29.6176C84.6648 28.1504 88.9884 27.4169 94.1037 27.4169C98.4477 27.4169 102.223 27.967 105.43 29.0674C108.638 30.127 111.114 31.6349 112.86 33.591C114.646 35.5064 115.539 37.7682 115.539 40.3765C115.539 42.4141 114.91 44.2888 113.651 46.0004C112.434 47.7121 110.465 49.0773 107.745 50.0962C105.2 51.025 101.886 51.4945 97.8041 51.5044C97.4414 51.5053 97.1486 51.2099 97.1486 50.8472C97.1486 50.4949 97.4251 50.2041 97.7771 50.1904C101.568 50.0435 104.829 50.3177 107.562 51.0131C110.444 51.7059 112.657 52.8878 114.2 54.5587C115.783 56.1888 116.574 58.308 116.574 60.9162C116.574 63.6875 115.661 66.1734 113.834 68.3741C112.007 70.534 109.348 72.2457 105.857 73.509C102.365 74.7316 98.1229 75.3429 93.1294 75.3429C88.2577 75.3429 84.0152 74.6909 80.4021 73.3868C76.7889 72.0419 73.9674 70.1469 71.9375 67.7017C70.8143 66.298 69.9887 64.7644 69.4609 63.1009C68.9443 61.4729 68.686 60.6589 69.2853 59.84C69.8846 59.0212 70.8968 59.0212 72.9212 59.0212H79.4343C80.4683 59.0212 80.9852 59.0212 81.3609 59.1812C81.7365 59.3413 82.5964 60.2367 84.3163 62.0274C84.7052 62.4324 85.1665 62.7955 85.7 63.1169C87.3239 64.0542 89.8004 64.5229 93.1294 64.5229C96.0118 64.5229 98.2244 64.1154 99.7671 63.3003C101.35 62.4852 102.142 61.3238 102.142 59.8159C102.142 58.9193 101.898 58.1857 101.411 57.6152C100.924 57.0039 100.031 56.5556 98.7319 56.2703C97.4733 55.985 95.7073 55.8424 93.4339 55.8424H89.7C87.8144 55.8424 86.8716 55.8424 86.2858 55.2566C85.7 54.6708 85.7 53.728 85.7 51.8424V50.4895C85.7 48.6039 85.7 47.6611 86.2858 47.0753C86.8716 46.4895 87.8144 46.4895 89.7 46.4895H93.4339C96.4381 46.4895 98.5086 46.1227 99.6453 45.3891C100.782 44.6556 101.35 43.6775 101.35 42.4549C101.35 41.0693 100.66 40.0301 99.2799 39.3373C97.9402 38.6037 95.9509 38.2369 93.3121 38.2369C90.4297 38.2369 88.2374 38.7056 86.7353 39.6429C86.2924 39.9072 85.9025 40.2052 85.5655 40.5369C83.7643 42.3094 82.8637 43.1957 82.4994 43.3449C82.1351 43.4941 81.6496 43.4941 80.6787 43.4941H74.2142Z" fill="white"/>
<path d="M25.2255 54.4102C23.1485 54.4102 22.11 54.4102 21.5141 53.5422C20.9181 52.6742 21.2306 51.8626 21.8556 50.2394C22.374 48.8931 23.1038 47.614 24.045 46.4022C25.9125 43.957 28.6122 42.0008 32.1442 40.5337C35.6762 39.0666 39.9998 38.333 45.1151 38.333C49.459 38.333 53.2346 38.8832 56.4418 39.9835C59.649 41.0431 62.1255 42.551 63.8711 44.5072C65.6574 46.4226 66.5506 48.6844 66.5506 51.2926C66.5506 53.3303 65.9213 55.2049 64.6628 56.9166C63.4449 58.6282 61.4759 59.9935 58.7559 61.0123C56.2113 61.9412 52.8978 62.4106 48.8155 62.4206C48.4528 62.4215 48.1599 62.126 48.1599 61.7633C48.1599 61.4111 48.4365 61.1202 48.7884 61.1066C52.579 60.9596 55.8406 61.2338 58.5732 61.9293C61.4556 62.6221 63.6682 63.8039 65.2109 65.4748C66.7942 67.1049 67.5858 69.2241 67.5858 71.8324C67.5858 74.6036 66.6724 77.0896 64.8455 79.2902C63.0186 81.4502 60.3595 83.1618 56.8681 84.4252C53.3767 85.6478 49.1342 86.2591 44.1407 86.2591C39.269 86.2591 35.0266 85.607 31.4134 84.3029C27.8002 82.958 24.9787 81.063 22.9488 78.6178C21.8256 77.2141 21.0001 75.6806 20.4723 74.0171C19.9557 72.389 19.6974 71.575 20.2966 70.7562C20.8959 69.9373 21.9081 69.9373 23.9325 69.9373H30.4457C31.4796 69.9373 31.9966 69.9373 32.3722 70.0974C32.7479 70.2574 33.6078 71.1528 35.3277 72.9435C35.7166 73.3485 36.1778 73.7117 36.7114 74.033C38.3353 74.9704 40.8117 75.439 44.1407 75.439C47.0232 75.439 49.2357 75.0315 50.7784 74.2164C52.3617 73.4014 53.1534 72.2399 53.1534 70.732C53.1534 69.8354 52.9098 69.1019 52.4226 68.5313C51.9355 67.92 51.0423 67.4717 49.7432 67.1865C48.4847 66.9012 46.7187 66.7585 44.4452 66.7585H40.7114C38.8258 66.7585 37.883 66.7585 37.2972 66.1728C36.7114 65.587 36.7114 64.6442 36.7114 62.7585V61.4056C36.7114 59.52 36.7114 58.5772 37.2972 57.9914C37.883 57.4056 38.8258 57.4056 40.7114 57.4056H44.4452C47.4494 57.4056 49.5199 57.0388 50.6566 56.3053C51.7934 55.5717 52.3617 54.5936 52.3617 53.371C52.3617 51.9854 51.6716 50.9462 50.2913 50.2534C48.9516 49.5198 46.9623 49.1531 44.3234 49.1531C41.441 49.1531 39.2487 49.6217 37.7466 50.559C37.3038 50.8234 36.9139 51.1214 36.5769 51.453C34.7756 53.2256 33.875 54.1119 33.5107 54.2611C33.1464 54.4102 32.661 54.4102 31.6901 54.4102H25.2255Z" fill="white"/>
<path d="M25.2255 54.4102C23.1485 54.4102 22.11 54.4102 21.5141 53.5422C20.9181 52.6742 21.2306 51.8626 21.8556 50.2394C22.374 48.8931 23.1038 47.614 24.045 46.4022C25.9125 43.957 28.6122 42.0008 32.1442 40.5337C35.6762 39.0666 39.9998 38.333 45.1151 38.333C49.459 38.333 53.2346 38.8832 56.4418 39.9835C59.649 41.0431 62.1255 42.551 63.8711 44.5072C65.6574 46.4226 66.5506 48.6844 66.5506 51.2926C66.5506 53.3303 65.9213 55.2049 64.6628 56.9166C63.4449 58.6282 61.4759 59.9935 58.7559 61.0123C56.2113 61.9412 52.8978 62.4106 48.8155 62.4206C48.4528 62.4215 48.1599 62.126 48.1599 61.7633C48.1599 61.4111 48.4365 61.1202 48.7884 61.1066C52.579 60.9596 55.8406 61.2338 58.5732 61.9293C61.4556 62.6221 63.6682 63.8039 65.2109 65.4748C66.7942 67.1049 67.5858 69.2241 67.5858 71.8324C67.5858 74.6036 66.6724 77.0896 64.8455 79.2902C63.0186 81.4502 60.3595 83.1618 56.8681 84.4252C53.3767 85.6478 49.1342 86.2591 44.1407 86.2591C39.269 86.2591 35.0266 85.607 31.4134 84.3029C27.8002 82.958 24.9787 81.063 22.9488 78.6178C21.8256 77.2141 21.0001 75.6806 20.4723 74.0171C19.9557 72.389 19.6974 71.575 20.2966 70.7562C20.8959 69.9373 21.9081 69.9373 23.9325 69.9373H30.4457C31.4796 69.9373 31.9966 69.9373 32.3722 70.0974C32.7479 70.2574 33.6078 71.1528 35.3277 72.9435C35.7166 73.3485 36.1778 73.7117 36.7114 74.033C38.3353 74.9704 40.8117 75.439 44.1407 75.439C47.0232 75.439 49.2357 75.0315 50.7784 74.2164C52.3617 73.4014 53.1534 72.2399 53.1534 70.732C53.1534 69.8354 52.9098 69.1019 52.4226 68.5313C51.9355 67.92 51.0423 67.4717 49.7432 67.1865C48.4847 66.9012 46.7187 66.7585 44.4452 66.7585H40.7114C38.8258 66.7585 37.883 66.7585 37.2972 66.1728C36.7114 65.587 36.7114 64.6442 36.7114 62.7585V61.4056C36.7114 59.52 36.7114 58.5772 37.2972 57.9914C37.883 57.4056 38.8258 57.4056 40.7114 57.4056H44.4452C47.4494 57.4056 49.5199 57.0388 50.6566 56.3053C51.7934 55.5717 52.3617 54.5936 52.3617 53.371C52.3617 51.9854 51.6716 50.9462 50.2913 50.2534C48.9516 49.5198 46.9623 49.1531 44.3234 49.1531C41.441 49.1531 39.2487 49.6217 37.7466 50.559C37.3038 50.8234 36.9139 51.1214 36.5769 51.453C34.7756 53.2256 33.875 54.1119 33.5107 54.2611C33.1464 54.4102 32.661 54.4102 31.6901 54.4102H25.2255Z" fill="white"/>
<path fill-rule="evenodd" clip-rule="evenodd" d="M36.328 114.966C36.328 114.024 36.328 113.552 36.0352 113.259C35.7423 112.966 35.2709 112.966 34.328 112.966H21.7402C20.7974 112.966 20.326 112.966 20.0331 112.674C19.7402 112.381 19.7402 111.909 19.7402 110.966V105.985C19.7402 105.042 19.7402 104.571 20.0331 104.278C20.326 103.985 20.7974 103.985 21.7402 103.985H59.0126H66.9518H75.6183C77.6763 103.985 78.7053 103.985 79.4855 104.539C80.2656 105.093 80.6047 106.064 81.2831 108.007L90.2551 133.707C91.0425 135.962 91.4362 137.09 92.147 137.09C92.8577 137.089 93.2494 135.96 94.0328 133.704L102.948 108.017L102.948 108.017L102.948 108.017C103.624 106.07 103.962 105.096 104.743 104.54C105.524 103.985 106.555 103.985 108.616 103.985H117.254H125.289H162.466C163.409 103.985 163.88 103.985 164.173 104.278C164.466 104.571 164.466 105.042 164.466 105.985V110.966C164.466 111.909 164.466 112.381 164.173 112.674C163.88 112.966 163.409 112.966 162.466 112.966H149.803C148.86 112.966 148.389 112.966 148.096 113.259C147.803 113.552 147.803 114.024 147.803 114.966V144.932C147.803 145.875 147.803 146.347 147.51 146.639C147.217 146.932 146.746 146.932 145.803 146.932H135.842C134.899 146.932 134.428 146.932 134.135 146.639C133.842 146.347 133.842 145.875 133.842 144.932V114.966C133.842 114.024 133.842 113.552 133.549 113.259C133.256 112.966 132.785 112.966 131.842 112.966H127.289C126.346 112.966 125.875 112.966 125.582 113.259C125.289 113.552 125.289 114.024 125.289 114.966V144.932C125.289 145.875 125.289 146.347 124.996 146.639C124.703 146.932 124.232 146.932 123.289 146.932H114.229C113.286 146.932 112.815 146.932 112.522 146.639C112.229 146.347 112.229 145.875 112.229 144.932V126.306C112.229 122.18 112.229 120.117 111.412 119.964C110.596 119.812 109.852 121.736 108.364 125.584L97.4267 153.865C97.1874 154.484 97.0677 154.794 96.8122 154.969C96.5566 155.144 96.2249 155.144 95.5613 155.144H88.6636C88.0008 155.144 87.6694 155.144 87.414 154.969C87.1586 154.794 87.0388 154.485 86.799 153.867L75.9373 125.872C74.4489 122.036 73.7047 120.118 72.8887 120.271C72.0727 120.424 72.0727 122.481 72.0727 126.596V144.932C72.0727 145.875 72.0727 146.347 71.7799 146.639C71.487 146.932 71.0156 146.932 70.0727 146.932H61.0126C60.0698 146.932 59.5984 146.932 59.3055 146.639C59.0126 146.347 59.0126 145.875 59.0126 144.932V114.966C59.0126 114.024 59.0126 113.552 58.7197 113.259C58.4268 112.966 57.9554 112.966 57.0126 112.966H52.2889C51.3461 112.966 50.8747 112.966 50.5818 113.259C50.2889 113.552 50.2889 114.024 50.2889 114.966V144.932C50.2889 145.875 50.2889 146.347 49.996 146.639C49.7031 146.932 49.2317 146.932 48.2889 146.932H38.328C37.3852 146.932 36.9138 146.932 36.6209 146.639C36.328 146.347 36.328 145.875 36.328 144.932V114.966Z" fill="white"/>
<path fill-rule="evenodd" clip-rule="evenodd" d="M36.328 114.966C36.328 114.024 36.328 113.552 36.0352 113.259C35.7423 112.966 35.2709 112.966 34.328 112.966H21.7402C20.7974 112.966 20.326 112.966 20.0331 112.674C19.7402 112.381 19.7402 111.909 19.7402 110.966V105.985C19.7402 105.042 19.7402 104.571 20.0331 104.278C20.326 103.985 20.7974 103.985 21.7402 103.985H59.0126H66.9518H75.6183C77.6763 103.985 78.7053 103.985 79.4855 104.539C80.2656 105.093 80.6047 106.064 81.2831 108.007L90.2551 133.707C91.0425 135.962 91.4362 137.09 92.147 137.09C92.8577 137.089 93.2494 135.96 94.0328 133.704L102.948 108.017L102.948 108.017L102.948 108.017C103.624 106.07 103.962 105.096 104.743 104.54C105.524 103.985 106.555 103.985 108.616 103.985H117.254H125.289H162.466C163.409 103.985 163.88 103.985 164.173 104.278C164.466 104.571 164.466 105.042 164.466 105.985V110.966C164.466 111.909 164.466 112.381 164.173 112.674C163.88 112.966 163.409 112.966 162.466 112.966H149.803C148.86 112.966 148.389 112.966 148.096 113.259C147.803 113.552 147.803 114.024 147.803 114.966V144.932C147.803 145.875 147.803 146.347 147.51 146.639C147.217 146.932 146.746 146.932 145.803 146.932H135.842C134.899 146.932 134.428 146.932 134.135 146.639C133.842 146.347 133.842 145.875 133.842 144.932V114.966C133.842 114.024 133.842 113.552 133.549 113.259C133.256 112.966 132.785 112.966 131.842 112.966H127.289C126.346 112.966 125.875 112.966 125.582 113.259C125.289 113.552 125.289 114.024 125.289 114.966V144.932C125.289 145.875 125.289 146.347 124.996 146.639C124.703 146.932 124.232 146.932 123.289 146.932H114.229C113.286 146.932 112.815 146.932 112.522 146.639C112.229 146.347 112.229 145.875 112.229 144.932V126.306C112.229 122.18 112.229 120.117 111.412 119.964C110.596 119.812 109.852 121.736 108.364 125.584L97.4267 153.865C97.1874 154.484 97.0677 154.794 96.8122 154.969C96.5566 155.144 96.2249 155.144 95.5613 155.144H88.6636C88.0008 155.144 87.6694 155.144 87.414 154.969C87.1586 154.794 87.0388 154.485 86.799 153.867L75.9373 125.872C74.4489 122.036 73.7047 120.118 72.8887 120.271C72.0727 120.424 72.0727 122.481 72.0727 126.596V144.932C72.0727 145.875 72.0727 146.347 71.7799 146.639C71.487 146.932 71.0156 146.932 70.0727 146.932H61.0126C60.0698 146.932 59.5984 146.932 59.3055 146.639C59.0126 146.347 59.0126 145.875 59.0126 144.932V114.966C59.0126 114.024 59.0126 113.552 58.7197 113.259C58.4268 112.966 57.9554 112.966 57.0126 112.966H52.2889C51.3461 112.966 50.8747 112.966 50.5818 113.259C50.2889 113.552 50.2889 114.024 50.2889 114.966V144.932C50.2889 145.875 50.2889 146.347 49.996 146.639C49.7031 146.932 49.2317 146.932 48.2889 146.932H38.328C37.3852 146.932 36.9138 146.932 36.6209 146.639C36.328 146.347 36.328 145.875 36.328 144.932V114.966Z" fill="white"/>
<path d="M82.9146 91.8727C81.3652 88.8563 80.5905 87.3481 81.2635 86.2396C81.9366 85.1311 83.627 85.1311 87.0078 85.1311H97.2247C100.605 85.1311 102.296 85.1311 102.969 86.2396C103.642 87.3481 102.867 88.8563 101.318 91.8727L96.2094 101.818C94.4162 105.309 93.5196 107.055 92.1162 107.055C90.7128 107.055 89.8162 105.309 88.023 101.818L82.9146 91.8727Z" fill="white"/>
<path d="M82.9146 91.8727C81.3652 88.8563 80.5905 87.3481 81.2635 86.2396C81.9366 85.1311 83.627 85.1311 87.0078 85.1311H97.2247C100.605 85.1311 102.296 85.1311 102.969 86.2396C103.642 87.3481 102.867 88.8563 101.318 91.8727L96.2094 101.818C94.4162 105.309 93.5196 107.055 92.1162 107.055C90.7128 107.055 89.8162 105.309 88.023 101.818L82.9146 91.8727Z" fill="white"/>
</svg>
